# xmcd
# Track frame offsets:
# 150
# 12248
# 31196
# 49158
# 64864
# 80626
# 97648
# 110815
# 130087
# 146729
#
# Disc length: 2142 seconds
# Revision: 0
# Processed by: cddbd v1.5.1PL2 Copyright (c) Steve Scherf et al.
# Submitted via: VisiTrax 2.9.10.228 - For more info visit www.synapsa.com
#
DISCID=81085c0a
DTITLE=Pork McElhinny - Long Way to the Top
DYEAR=2005
DGENRE=Country
TTITLE0=I'm Just Me
TTITLE1=Hardwood Floor
TTITLE2=Life Is Good
TTITLE3=Love's Got A Hold On Me
TTITLE4=Back In Time
TTITLE5=Made To Order
TTITLE6=She's 32
TTITLE7=When I See You Cry
TTITLE8=The End Of The Road
TTITLE9=Long Way To The Top
EXTD=
EXTT0=
EXTT1=
EXTT2=
EXTT3=
EXTT4=
EXTT5=
EXTT6=
EXTT7=
EXTT8=
EXTT9=
PLAYORDER=
